<svg version="1.1" id="Layer_1" xmlns="http://www.w3.org/2000/svg" xmlns:xlink="http://www.w3.org/1999/xlink" x="0px" y="0px"
	 width="100%" viewBox="0 0 720 480" enable-background="new 0 0 720 480" xml:space="preserve">
<path fill="#000000" opacity="1.000000" stroke="none" 
	d="
M368.437500,481.000000 
	C357.529449,479.218567 346.946381,478.258392 336.587830,475.627686 
	C299.274963,466.151581 269.322205,445.776703 246.209671,415.189087 
	C228.015503,391.110504 217.010361,364.087708 214.667450,333.926086 
	C209.532227,267.817841 237.920868,218.647476 292.620819,183.792511 
	C317.748169,167.781296 346.146790,161.012344 375.846008,161.077820 
	C402.659027,161.136932 427.754395,168.442642 450.992279,181.902802 
	C454.463226,183.913315 458.033295,186.008789 459.556702,189.978638 
	C461.158142,194.151718 460.857391,198.196976 457.303192,201.433075 
	C453.683655,204.728622 449.580566,205.287308 445.315979,202.928864 
	C435.981384,197.766556 426.584381,192.780151 416.419617,189.377228 
	C397.180695,182.936539 377.565247,180.405121 357.390747,183.484573 
	C355.609009,183.756546 353.877686,184.359085 352.184265,184.792389 
	C352.196686,196.596024 351.317383,197.290344 340.523010,202.258270 
	C302.155975,219.916046 277.609619,248.849930 271.405518,291.193085 
	C266.214111,326.624268 277.473022,357.571472 300.804718,384.280640 
	C316.731903,402.513458 336.138458,415.514984 359.549530,422.285980 
	C387.136078,430.264648 413.539764,426.811218 439.033539,414.244415 
	C440.675751,413.434875 442.263947,412.502625 443.945953,411.789398 
	C449.350098,409.497833 454.634918,411.260498 457.200531,416.132019 
	C459.847504,421.158051 458.633972,427.546234 453.847382,430.329651 
	C438.427307,439.296600 421.917847,445.859161 404.101990,447.188538 
	C339.798401,451.986725 292.662842,423.296417 263.582764,367.868469 
	C237.297470,317.767487 243.284760,268.159149 276.921021,223.519882 
	C270.051697,228.317657 255.991135,246.053574 249.279633,258.926636 
	C237.373795,281.762726 233.537811,306.262054 235.572784,331.579346 
	C237.733719,358.463501 247.712036,382.566681 264.333740,403.855957 
	C284.714142,429.959473 310.753967,447.601685 342.990601,455.519226 
	C387.455963,466.440247 426.877716,455.387329 461.112793,426.047913 
	C489.085876,402.074982 504.664032,371.075684 508.848541,334.393005 
	C509.948792,324.747925 510.136261,315.145813 508.850922,305.518005 
	C508.697510,304.369049 508.713043,303.186035 508.762177,302.023529 
	C509.002747,296.332825 512.970337,291.823700 518.093079,291.368683 
	C523.748718,290.866333 528.280518,294.365448 529.306274,300.435089 
	C532.374878,318.593414 530.743042,336.555389 526.870117,354.424438 
	C521.305237,380.099365 510.078522,402.975555 493.608826,423.429138 
	C469.212952,453.726227 437.430359,471.131317 399.586304,478.418335 
	C391.674255,479.941895 383.685608,479.804230 375.379700,480.852722 
	C372.958344,481.000000 370.916656,481.000000 368.437500,481.000000 
z"/>
<path fill="#000000" opacity="1.000000" stroke="none" 
	d="
M368.282562,408.018982 
	C331.146545,397.891235 305.346466,375.303192 291.332275,339.955475 
	C282.443848,317.536469 282.046173,294.516632 289.842529,271.542419 
	C290.640747,269.190155 291.693787,266.882172 292.937378,264.732269 
	C295.358093,260.547424 300.008850,258.744843 304.532318,259.978424 
	C308.744659,261.127167 311.207550,264.853699 311.353180,269.837128 
	C311.513062,275.307861 308.829773,280.108276 308.017059,285.392395 
	C301.354706,328.710510 322.392273,366.607452 362.612213,383.198059 
	C393.506805,395.941956 434.520355,385.773254 457.159973,359.981842 
	C464.810333,351.266479 471.245758,341.891937 475.872192,331.226044 
	C479.008270,323.996033 484.142609,321.524902 490.046143,323.852386 
	C495.449646,325.982697 497.960541,332.498535 495.208862,339.170197 
	C478.964966,378.554993 450.596924,402.812317 407.826538,409.496033 
	C394.561005,411.569061 381.662018,410.491882 368.282562,408.018982 
z"/>
<path fill="#000000" opacity="1.000000" stroke="none" 
	d="
M354.064941,291.672424 
	C352.046234,285.829712 353.293457,282.725983 358.510010,280.613464 
	C365.005707,277.982971 371.839111,276.436035 378.623413,274.753357 
	C380.370728,274.320007 382.105469,273.835907 383.956055,273.345978 
	C384.027313,268.718414 381.433411,265.199615 380.430817,261.230896 
	C379.249207,256.553406 377.615051,251.967590 377.699280,247.077347 
	C377.810791,240.601471 382.628815,237.697418 388.252472,240.955841 
	C394.784729,244.740738 400.172272,250.050659 405.328674,255.478622 
	C408.054413,258.347900 409.761719,258.523895 412.447693,255.471222 
	C416.738983,250.594131 421.644775,246.303696 426.861694,242.394562 
	C429.943665,240.085205 433.245514,238.372482 436.978943,240.483170 
	C440.832153,242.661530 440.784729,246.614746 440.169006,250.266022 
	C439.004547,257.171356 436.824860,263.821869 434.197540,270.317474 
	C433.896881,271.060852 433.687164,271.841003 433.354858,272.847778 
	C437.238708,275.330109 441.718536,275.257721 445.726746,276.621490 
	C449.657288,277.958862 453.768280,278.765564 457.700378,280.099060 
	C461.118958,281.258362 464.168365,283.093201 464.275208,287.330688 
	C464.388184,291.810242 461.375763,293.986847 457.684296,295.032898 
	C450.485535,297.072784 443.180084,298.735413 435.926208,300.583313 
	C435.303040,300.742096 434.734955,301.116943 433.719696,301.586334 
	C435.538879,307.437958 437.355011,313.231628 439.138031,319.035400 
	C440.023712,321.918274 440.484558,324.862762 440.385864,327.897430 
	C440.157898,334.905731 435.442535,337.782867 429.260437,334.550079 
	C422.658447,331.097748 417.757874,325.525726 412.288513,320.666504 
	C411.188202,319.688934 410.078094,318.722412 407.596680,316.541718 
	C404.882141,319.842224 402.378998,323.139465 399.604401,326.189819 
	C396.670898,329.414886 393.013641,331.824097 389.304596,334.056000 
	C386.935913,335.481323 384.418732,337.220459 381.417908,335.362946 
	C378.336426,333.455536 377.553864,330.447479 377.739258,327.144867 
	C378.134888,320.097290 380.170227,313.413818 382.529388,306.814606 
	C383.129333,305.136353 384.341156,303.588623 383.685272,301.312592 
	C376.654633,298.645294 368.910919,298.218781 361.646362,295.921295 
	C358.928345,295.061646 356.187744,294.342834 354.064941,291.672424 
z"/>
</svg>